<svg width="75" height="75" viewBox="0 0 75 75" fill="none" xmlns="http://www.w3.org/2000/svg">
<rect width="75" height="75" rx="15" fill="white"/>
<path d="M42.3125 60.2188C42.3125 60.8438 42.1771 61.2812 41.9062 61.5312C41.6562 61.7604 41.2188 61.875 40.5938 61.875H34.1562C33.5312 61.875 33.0833 61.7604 32.8125 61.5312C32.5625 61.2812 32.4375 60.8438 32.4375 60.2188V31.5312C32.4375 30.9062 32.5625 30.4792 32.8125 30.25C33.0833 30 33.5312 29.875 34.1562 29.875H40.5938C41.2188 29.875 41.6562 30 41.9062 30.25C42.1771 30.4792 42.3125 30.9062 42.3125 31.5312V60.2188Z" fill="#053D86"/>
<path d="M31 19.375C31 19.1042 31.0833 18.8646 31.25 18.6562C31.4167 18.4479 31.6354 18.1771 31.9062 17.8438C32.4896 17.1771 33.1667 16.4792 33.9375 15.75C34.7083 15 35.4896 14.2812 36.2812 13.5938C36.7812 13.1979 37.1562 13 37.4062 13C37.6562 13 38.0417 13.1979 38.5625 13.5938C40.25 15.0521 41.6875 16.4688 42.875 17.8438C43.1458 18.1562 43.3646 18.4271 43.5312 18.6562C43.7188 18.8646 43.8125 19.1042 43.8125 19.375C43.8125 19.6458 43.7188 19.8854 43.5312 20.0938C43.3646 20.3021 43.1354 20.5833 42.8438 20.9375C42.2812 21.5833 41.625 22.2812 40.875 23.0312C40.125 23.7604 39.3542 24.4583 38.5625 25.125C38.2708 25.375 38.0417 25.5417 37.875 25.625C37.7083 25.6875 37.5521 25.7188 37.4062 25.7188C37.2604 25.7188 37.1042 25.6875 36.9375 25.625C36.7917 25.5417 36.5521 25.375 36.2188 25.125C35.3854 24.4583 34.6042 23.7604 33.875 23.0312C33.1458 22.2812 32.4896 21.5625 31.9062 20.875C31.6354 20.5417 31.4167 20.2812 31.25 20.0938C31.0833 19.8854 31 19.6458 31 19.375Z" fill="#FDC700"/>
</svg>
