<svg width="179" height="50" viewBox="0 0 179 50" fill="none" xmlns="http://www.w3.org/2000/svg">
<path d="M158.861 48.875L153.357 31.275H152.909L148.109 47.147L143.949 31.403L148.493 16.235H158.221L168.333 48.875H158.861ZM136.461 48.875L127.309 16.235H137.549L146.125 48.875H136.461ZM170.253 47.019L165.197 31.211L168.909 16.235H178.957L170.253 47.019Z" fill="#4896F1"/>
<path d="M113.583 49.067V32.491C113.583 30.443 113.54 28.8217 113.455 27.627C113.412 26.4324 113.241 25.5364 112.943 24.939C112.644 24.3417 112.132 23.9577 111.407 23.787C110.681 23.6164 109.679 23.531 108.399 23.531C107.801 23.531 107.268 23.5524 106.799 23.595C106.329 23.595 105.945 23.659 105.647 23.787V15.851C106.073 15.8084 106.521 15.787 106.991 15.787C107.46 15.7444 107.929 15.723 108.399 15.723C111.343 15.723 113.775 15.8937 115.695 16.235C117.615 16.5337 119.129 17.067 120.239 17.835C121.348 18.603 122.159 19.627 122.671 20.907C123.183 22.187 123.503 23.787 123.631 25.707C123.801 27.5844 123.887 29.8457 123.887 32.491C123.887 35.307 123.78 37.7177 123.567 39.723C123.396 41.7284 122.991 43.371 122.351 44.651C121.711 45.931 120.687 46.9337 119.279 47.659C117.913 48.3417 116.015 48.811 113.583 49.067ZM108.399 49.387C105.497 49.387 103.087 49.2164 101.167 48.875C99.2466 48.5337 97.7319 47.979 96.6226 47.211C95.5133 46.443 94.7026 45.419 94.1906 44.139C93.6786 42.859 93.3373 41.259 93.1666 39.339C93.0386 37.419 92.9746 35.1364 92.9746 32.491C92.9746 29.7177 93.0599 27.3284 93.2306 25.323C93.4013 23.3177 93.8066 21.675 94.4466 20.395C95.0866 19.115 96.1106 18.1337 97.5186 17.451C98.9266 16.7684 100.847 16.299 103.279 16.043V32.491C103.279 34.539 103.3 36.1817 103.343 37.419C103.428 38.6564 103.62 39.5737 103.919 40.171C104.217 40.7684 104.708 41.1524 105.391 41.323C106.116 41.4937 107.119 41.579 108.399 41.579C108.996 41.579 109.529 41.579 109.999 41.579C110.468 41.5364 110.873 41.451 111.215 41.323V49.259C110.788 49.3017 110.34 49.323 109.871 49.323C109.401 49.3657 108.911 49.387 108.399 49.387Z" fill="#357DD2"/>
<path d="M75.898 48.875V31.595C75.898 29.8457 75.8553 28.4804 75.77 27.499C75.6847 26.475 75.4927 25.7284 75.194 25.259C74.8953 24.7897 74.426 24.5124 73.786 24.427C73.1887 24.299 72.378 24.235 71.354 24.235C70.842 24.235 70.3727 24.2777 69.946 24.363C69.5193 24.4057 69.1567 24.5124 68.858 24.683V17.771C69.8393 17.0457 70.9487 16.5337 72.186 16.235C73.466 15.8937 74.8313 15.723 76.282 15.723C78.458 15.723 80.186 16.0004 81.466 16.555C82.7887 17.1097 83.7913 17.9204 84.474 18.987C85.1567 20.0537 85.6047 21.3764 85.818 22.955C86.074 24.5337 86.202 26.3684 86.202 28.459V48.875H75.898ZM56.25 48.875V16.235H66.49V48.875H56.25Z" fill="#2263B4"/>
<path d="M19.5625 48.875V1.323H29.8025V48.875H19.5625ZM40.0425 48.875L33.2585 36.523H32.1705V28.715H33.2585L40.2985 16.235H51.3065L41.2585 31.851L51.4985 48.875H40.0425Z" fill="#0F4A95"/>
<path d="M11.3125 47.2188C11.3125 47.8438 11.1771 48.2812 10.9062 48.5312C10.6562 48.7604 10.2188 48.875 9.59375 48.875H3.15625C2.53125 48.875 2.08333 48.7604 1.8125 48.5312C1.5625 48.2812 1.4375 47.8438 1.4375 47.2188V18.5312C1.4375 17.9062 1.5625 17.4792 1.8125 17.25C2.08333 17 2.53125 16.875 3.15625 16.875H9.59375C10.2188 16.875 10.6562 17 10.9062 17.25C11.1771 17.4792 11.3125 17.9062 11.3125 18.5312V47.2188Z" fill="#053D86"/>
<path d="M0 6.375C0 6.10417 0.0833333 5.86458 0.25 5.65625C0.416667 5.44792 0.635417 5.17708 0.90625 4.84375C1.48958 4.17708 2.16667 3.47917 2.9375 2.75C3.70833 2 4.48958 1.28125 5.28125 0.59375C5.78125 0.197917 6.15625 0 6.40625 0C6.65625 0 7.04167 0.197917 7.5625 0.59375C9.25 2.05208 10.6875 3.46875 11.875 4.84375C12.1458 5.15625 12.3646 5.42708 12.5312 5.65625C12.7188 5.86458 12.8125 6.10417 12.8125 6.375C12.8125 6.64583 12.7188 6.88542 12.5312 7.09375C12.3646 7.30208 12.1354 7.58333 11.8438 7.9375C11.2812 8.58333 10.625 9.28125 9.875 10.0312C9.125 10.7604 8.35417 11.4583 7.5625 12.125C7.27083 12.375 7.04167 12.5417 6.875 12.625C6.70833 12.6875 6.55208 12.7188 6.40625 12.7188C6.26042 12.7188 6.10417 12.6875 5.9375 12.625C5.79167 12.5417 5.55208 12.375 5.21875 12.125C4.38542 11.4583 3.60417 10.7604 2.875 10.0312C2.14583 9.28125 1.48958 8.5625 0.90625 7.875C0.635417 7.54167 0.416667 7.28125 0.25 7.09375C0.0833333 6.88542 0 6.64583 0 6.375Z" fill="#FDC700"/>
</svg>
